<?xml version="1.0" encoding="utf-8"?>
<!-- Generator: Adobe Illustrator 19.1.0, SVG Export Plug-In . SVG Version: 6.00 Build 0)  -->
<svg version="1.1" id="Layer_1" xmlns="http://www.w3.org/2000/svg" xmlns:xlink="http://www.w3.org/1999/xlink" x="0px" y="0px"
	 viewBox="-93 121 612 360" style="enable-background:new -93 121 612 360;" xml:space="preserve">
<style type="text/css">
	.st0{fill:#ADB0FF;}
	.st1{fill:#36E0C1;}
	.st2{fill:#999999;}
	.st3{fill:#E2E2E2;}
	.st4{fill:#F2F2F2;}
</style>
<g>
	<path class="st0" d="M-74.5,351.2H-88v-8.4h37v8.4h-13.5V388h-9.9L-74.5,351.2L-74.5,351.2z"/>
	<path class="st0" d="M-38.1,342.8h10.2L-11,388h-10.3l-3.4-10.1h-16.9l-3.6,10.1h-10.1L-38.1,342.8z M-39,370.5h11.7l-5.7-16.6
		h-0.1L-39,370.5z"/>
	<path class="st0" d="M-7,342.8H7l10.6,31.1h0.1l10-31.1h14V388h-9.3v-32h-0.1l-11.2,32h-7.7L2.3,356.3H2.2V388H-7V342.8z"/>
	<path class="st0" d="M62.8,342.8H73L89.9,388H79.6l-3.4-10.1H59.3L55.8,388H45.7L62.8,342.8z M61.8,370.5h11.7l-5.7-16.6h-0.1
		L61.8,370.5z"/>
	<path class="st0" d="M93.8,342.8h24.4c8.1,0,13.2,5.6,13.2,12.5c0,5.3-2.2,9.3-7.2,11.3v0.1c4.9,1.3,6.3,6,6.6,10.6
		c0.2,2.9,0.1,8.2,1.9,10.7h-9.9c-1.2-2.9-1.1-7.2-1.6-10.8c-0.7-4.7-2.5-6.8-7.5-6.8h-9.9V388h-9.9v-45.2H93.8z M103.8,363.2h10.9
		c4.4,0,6.8-1.9,6.8-6.5c0-4.4-2.4-6.3-6.8-6.3h-10.9V363.2z"/>
	<path class="st0" d="M139.5,342.8h9.9V388h-9.9V342.8z"/>
	<path class="st0" d="M158.2,342.8h9.9l18.9,30.3h0.1v-30.3h9.3V388h-9.9l-18.8-30.3h-0.1V388h-9.3v-45.2H158.2z"/>
	<path class="st1" d="M224.3,341.8c14.2,0,21.3,11.2,21.3,23.6c0,12.4-7.1,23.6-21.3,23.6c-14.3,0-21.3-11.2-21.3-23.6
		S210.1,341.8,224.3,341.8z M224.3,385.3c11.9,0,17-10,17-19.9s-5.1-19.9-17-19.9c-12,0-17,10-17,19.9S212.3,385.3,224.3,385.3z"/>
	<path class="st1" d="M252.3,342.8h19.1c7.6,0,14.5,2.7,14.5,11.1c0,4.7-3.2,9.1-7.9,10.1v0.1c5.8,0.8,9.6,5.1,9.6,11
		c0,4.3-1.5,12.9-16.2,12.9h-19.1V342.8z M256.6,362.6h14.8c6.9,0,10.2-3.4,10.2-7.7c0-5.6-3.5-8.5-10.2-8.5h-14.8V362.6z
		 M256.6,384.3h14.8c6.4,0.1,11.9-2.1,11.9-9.3c0-5.8-4.4-8.7-11.9-8.7h-14.8V384.3z"/>
	<path class="st1" d="M294.6,342.8h4.3v41.5h25.3v3.7h-29.6L294.6,342.8L294.6,342.8z"/>
	<path class="st1" d="M347.5,341.8c14.2,0,21.3,11.2,21.3,23.6c0,12.4-7.1,23.6-21.3,23.6c-14.3,0-21.3-11.2-21.3-23.6
		S333.3,341.8,347.5,341.8z M347.5,385.3c11.9,0,17-10,17-19.9s-5.1-19.9-17-19.9c-12,0-17,10-17,19.9S335.6,385.3,347.5,385.3z"/>
	<path class="st1" d="M371,342.8h4.6l10.3,39.6h0.1l11-39.6h5.4l11.1,39.6h0.1l10.3-39.6h4.3L415.8,388h-4.6l-11.5-40.5h-0.1
		L388.2,388h-4.7L371,342.8z"/>
	<path class="st1" d="M433.3,342.8h4.3V388h-4.3V342.8z"/>
	<path class="st1" d="M442.2,342.8H478v3.7h-15.8V388h-4.3v-41.5h-15.8L442.2,342.8L442.2,342.8z"/>
	<path class="st1" d="M480.1,342.8h32.6v3.8l-29.8,37.7h30.4v3.7H478v-3.8l29.8-37.7h-27.7V342.8z"/>
</g>
<path class="st2" d="M36.3,460.9c-0.1,3.6,2.5,4.7,5.7,4.7c1.8,0,4.6-1,4.6-3.5c0-2-2-2.8-3.6-3.1l-3.9-1c-2.1-0.5-3.9-1.5-3.9-4.2
	c0-1.7,1.1-4.9,6-4.9c3.4,0,6.5,1.9,6.4,5.4H46c-0.1-2.7-2.3-4-4.8-4c-2.3,0-4.4,0.9-4.4,3.5c0,1.6,1.2,2.3,2.6,2.7l4.2,1.1
	c2.5,0.7,4.5,1.7,4.5,4.6c0,1.2-0.5,5-6.7,5c-4.1,0-7.2-1.9-7-6.1h1.9V460.9z"/>
<path class="st2" d="M58.3,448.9c5.5,0,8.2,4.3,8.2,9.1c0,4.8-2.7,9.1-8.2,9.1s-8.2-4.3-8.2-9.1C50,453.2,52.8,448.9,58.3,448.9z
	 M58.3,465.6c4.6,0,6.5-3.9,6.5-7.7c0-3.8-2-7.7-6.5-7.7c-4.6,0-6.6,3.9-6.6,7.7C51.7,461.8,53.6,465.6,58.3,465.6z"/>
<path class="st2" d="M76.4,448.9c5.5,0,8.2,4.3,8.2,9.1c0,4.8-2.7,9.1-8.2,9.1s-8.2-4.3-8.2-9.1C68.1,453.2,70.9,448.9,76.4,448.9z
	 M76.4,465.6c4.6,0,6.5-3.9,6.5-7.7c0-3.8-2-7.7-6.5-7.7c-4.6,0-6.6,3.9-6.6,7.7C69.8,461.8,71.8,465.6,76.4,465.6z"/>
<path class="st2" d="M85.3,449.3h13.8v1.4H93v16h-1.7v-16h-6.1v-1.4H85.3z"/>
<path class="st2" d="M100.8,449.3h1.7v7.6h10.4v-7.6h1.7v17.4h-1.7v-8.4h-10.4v8.4h-1.7V449.3z"/>
<path class="st2" d="M118,449.3h12v1.4h-10.4v6.3h9.7v1.4h-9.7v6.9h10.5v1.4H118V449.3z"/>
<path class="st3" d="M139.6,445.5h1.3v24.4h-1.3V445.5z"/>
<path class="st2" d="M152.2,460.9c-0.1,3.6,2.5,4.7,5.7,4.7c1.8,0,4.6-1,4.6-3.5c0-2-2-2.8-3.6-3.1l-3.9-1c-2.1-0.5-3.9-1.5-3.9-4.2
	c0-1.7,1.1-4.9,6-4.9c3.4,0,6.5,1.9,6.4,5.4h-1.7c-0.1-2.7-2.3-4-4.8-4c-2.3,0-4.4,0.9-4.4,3.5c0,1.6,1.2,2.3,2.6,2.7l4.2,1.1
	c2.5,0.7,4.5,1.7,4.5,4.6c0,1.2-0.5,5-6.7,5c-4.1,0-7.2-1.9-7-6.1h2V460.9z"/>
<path class="st2" d="M165,449.3h13.8v1.4h-6.1v16H171v-16h-6V449.3z"/>
<path class="st2" d="M180.4,449.3h8c2.9,0,5.3,1.4,5.3,4.5c0,2.2-1.1,4-3.4,4.4l0,0c2.3,0.3,2.9,1.9,3.1,3.9
	c0.1,1.2,0.1,3.6,0.8,4.5h-1.8c-0.4-0.7-0.4-2-0.5-2.7c-0.1-2.4-0.3-5.2-3.5-5h-6.3v7.7h-1.7V449.3z M182.1,457.5h6.2
	c2,0,3.8-1.3,3.8-3.4s-1.3-3.5-3.8-3.5h-6.2V457.5z"/>
<path class="st2" d="M196.7,449.3h12v1.4h-10.4v6.3h9.7v1.4h-9.7v6.9h10.5v1.4h-12.2v-17.4H196.7z"/>
<path class="st2" d="M211.2,449.3h1.9l10.2,14.8h0.1v-14.8h1.7v17.4h-1.9L213,452l0,0v14.7h-1.7v-17.4H211.2z"/>
<path class="st2" d="M243.3,466.7h-1.2l-0.2-3.2l0,0c-1.2,2.5-3.5,3.5-6,3.5c-5.5,0-8.2-4.3-8.2-9.1c0-4.8,2.7-9.1,8.2-9.1
	c3.7,0,6.6,2,7.3,5.8h-1.7c-0.2-2-2.3-4.4-5.6-4.4c-4.6,0-6.6,3.9-6.6,7.7c0,3.8,2,7.7,6.6,7.7c3.9,0,6.1-2.7,6-6.4H236v-1.4h7.4
	L243.3,466.7L243.3,466.7z"/>
<path class="st2" d="M244.6,449.3h13.8v1.4h-6.1v16h-1.7v-16h-6.1v-1.4H244.6z"/>
<path class="st2" d="M260.1,449.3h1.7v7.6h10.4v-7.6h1.7v17.4h-1.7v-8.4h-10.4v8.4h-1.7V449.3z"/>
<path class="st2" d="M277.3,449.3h12v1.4H279v6.3h9.7v1.4H279v6.9h10.5v1.4h-12.2V449.3z"/>
<path class="st2" d="M291.8,449.3h1.9l10.2,14.8h0.1v-14.8h1.7v17.4h-1.9L293.6,452l0,0v14.7h-1.7v-17.4H291.8z"/>
<path class="st3" d="M316.1,445.5h1.3v24.4h-1.3V445.5z"/>
<path class="st2" d="M328.8,460.9c-0.1,3.6,2.5,4.7,5.7,4.7c1.8,0,4.6-1,4.6-3.5c0-2-2-2.8-3.6-3.1l-3.9-1c-2-0.5-3.9-1.5-3.9-4.2
	c0-1.7,1.1-4.9,6-4.9c3.4,0,6.5,1.9,6.4,5.4h-1.7c-0.1-2.7-2.3-4-4.8-4c-2.3,0-4.4,0.9-4.4,3.5c0,1.6,1.2,2.3,2.6,2.7l4.2,1.1
	c2.5,0.7,4.5,1.7,4.5,4.6c0,1.2-0.5,5-6.7,5c-4.1,0-7.2-1.9-7-6.1h2V460.9z"/>
<path class="st2" d="M350.7,448.9c5.5,0,8.2,4.3,8.2,9.1c0,4.8-2.7,9.1-8.2,9.1s-8.2-4.3-8.2-9.1
	C342.5,453.2,345.2,448.9,350.7,448.9z M350.7,465.6c4.6,0,6.5-3.9,6.5-7.7c0-3.8-2-7.7-6.5-7.7c-4.6,0-6.6,3.9-6.6,7.7
	C344.1,461.8,346.1,465.6,350.7,465.6z"/>
<path class="st2" d="M366.6,449.3h1.9l6.8,17.4h-1.8l-2.1-5.4h-7.9l-2.1,5.4h-1.8L366.6,449.3z M364,459.9h6.9l-3.4-8.9L364,459.9z"
	/>
<path class="st2" d="M376.9,449.3h8c2.9,0,5.3,1.4,5.3,4.5c0,2.2-1.2,4-3.4,4.4l0,0c2.3,0.3,2.9,1.9,3.1,3.9
	c0.1,1.2,0.1,3.6,0.8,4.5h-1.8c-0.4-0.7-0.4-2-0.5-2.7c-0.1-2.4-0.3-5.2-3.5-5h-6.3v7.7h-1.7V449.3z M378.6,457.5h6.2
	c2,0,3.8-1.3,3.8-3.4s-1.3-3.5-3.8-3.5h-6.2V457.5z"/>
<g>
	<g>
		<polygon class="st3" points="-88.1,459.9 -88.1,458.4 28.3,458.4 28.3,459.9 		"/>
	</g>
</g>
<g>
	<g>
		<polygon class="st3" points="397.7,459.9 397.7,458.4 514.1,458.4 514.1,459.9 		"/>
	</g>
</g>
<g>
	<g>
		<g>
			<path class="st0" d="M61.9,430.8H56l-4.6-18.4h-0.1l-4.5,18.4h-6l-7.2-27.1h6l4.3,18.4H44l4.7-18.4h5.6l4.6,18.7H59l4.4-18.7h5.8
				L61.9,430.8z"/>
			<path class="st0" d="M84,403.1c8.4,0,13.3,6.3,13.3,14.3c0,7.8-4.9,14.1-13.3,14.1c-8.4,0-13.3-6.3-13.3-14.1
				C70.7,409.4,75.7,403.1,84,403.1z M84,426.5c5.3,0,7.4-4.6,7.4-9.1c0-4.7-2-9.3-7.4-9.3s-7.4,4.6-7.4,9.3
				C76.7,421.9,78.7,426.5,84,426.5z"/>
			<path class="st0" d="M124.4,420.6c0,7.3-4.3,10.9-11.6,10.9s-11.5-3.5-11.5-10.9v-16.8h6v16.8c0,3,0.8,5.9,5.6,5.9
				c4.2,0,5.6-1.9,5.6-5.9v-16.8h6v16.8H124.4z"/>
			<path class="st0" d="M129.5,403.8h5.9l11.3,18.2h0.1v-18.2h5.6v27.1h-6l-11.3-18.1H135v18.1h-5.6v-27.1H129.5z"/>
			<path class="st0" d="M157.6,403.8h11.7c7,0,12.3,4.4,12.3,13.4c0,7.9-4,13.7-12.3,13.7h-11.7L157.6,403.8L157.6,403.8z
				 M163.6,425.8h5.3c3.5,0,6.8-2.1,6.8-8.1c0-5.5-1.9-8.9-7.8-8.9h-4.3V425.8z"/>
			<path class="st0" d="M189.8,421.9c0,3.6,2.8,5,6,5c2.1,0,5.3-0.6,5.3-3.4c0-2.9-4.1-3.4-8-4.5c-4-1.1-8.1-2.6-8.1-7.7
				c0-5.5,5.2-8.2,10.1-8.2c5.7,0,10.9,2.5,10.9,8.7h-5.8c-0.2-3.3-2.5-4.1-5.4-4.1c-1.9,0-4.1,0.8-4.1,3.1c0,2.1,1.3,2.4,8.1,4.1
				c2,0.5,8,1.7,8,7.9c0,5-3.9,8.7-11.3,8.7c-6,0-11.6-3-11.5-9.6H189.8z"/>
			<path class="st1" d="M240.4,403.8h2.8l6.1,23.7h0.1l6.6-23.7h3.2l6.6,23.7h0.1l6.2-23.7h2.6l-7.5,27.1h-2.7l-6.9-24.2h-0.1
				l-6.8,24.2h-2.8L240.4,403.8z"/>
			<path class="st1" d="M277.7,403.8h2.6v27.1h-2.6V403.8z"/>
			<path class="st1" d="M287.1,421.9c-0.1,5.6,3.9,7.3,8.8,7.3c2.8,0,7.2-1.6,7.2-5.5c0-3.1-3.1-4.3-5.6-4.9l-6-1.5
				c-3.2-0.8-6.1-2.3-6.1-6.5c0-2.7,1.7-7.6,9.3-7.6c5.4,0,10.1,2.9,10,8.4h-2.6c-0.2-4.1-3.6-6.2-7.4-6.2c-3.5,0-6.8,1.4-6.8,5.4
				c0,2.5,1.9,3.6,4.1,4.1l6.6,1.6c3.8,1,7,2.7,7,7.1c0,1.9-0.8,7.7-10.4,7.7c-6.4,0-11.1-2.9-10.8-9.5h2.7V421.9z"/>
			<path class="st1" d="M309.8,403.8h9.4c8.2,0.2,12.4,4.7,12.4,13.5c0,8.9-4.3,13.4-12.4,13.5h-9.4V403.8z M312.4,428.6h5.5
				c7.8,0,11.2-3.3,11.2-11.3c0-8.1-3.4-11.4-11.2-11.3h-5.5V428.6z"/>
			<path class="st1" d="M347.1,403.2c8.5,0,12.7,6.7,12.7,14.1s-4.2,14.1-12.7,14.1s-12.8-6.7-12.8-14.1
				C334.4,409.9,338.6,403.2,347.1,403.2z M347.1,429.2c7.1,0,10.2-6,10.2-11.9s-3-11.9-10.2-11.9s-10.2,6-10.2,11.9
				S340,429.2,347.1,429.2z"/>
			<path class="st1" d="M363.8,403.8h3.8l9.4,23.7l9.3-23.7h3.8v27.1h-2.6v-23.4h-0.1l-9.3,23.4h-2.4l-9.3-23.4h-0.1v23.4h-2.6
				v-27.1H363.8z"/>
		</g>
	</g>
	<g>
		<path class="st2" d="M213.8,413.3h2.4l3.9,10.4h-2.4l-0.8-2.3H213l-0.8,2.3h-2.3L213.8,413.3z M213.5,419.7h2.7l-1.3-3.8l0,0
			L213.5,419.7z"/>
		<path class="st2" d="M220.9,413.3h5.6c1.9,0,3.1,1.3,3.1,2.9c0,1.2-0.5,2.2-1.7,2.6l0,0c1.1,0.3,1.5,1.4,1.5,2.4
			c0,0.7,0,1.9,0.4,2.5h-2.3c-0.3-0.7-0.3-1.7-0.4-2.5c-0.2-1.1-0.6-1.6-1.7-1.6h-2.3v4.1h-2.3L220.9,413.3L220.9,413.3z M223.2,418
			h2.5c1,0,1.6-0.4,1.6-1.5c0-1-0.6-1.5-1.6-1.5h-2.5V418z"/>
		<path class="st2" d="M231.5,413.3h7.8v1.9h-5.5v2.2h5.1v1.8h-5.1v2.6h5.6v1.9h-7.9V413.3z"/>
	</g>
</g>
<g>
	<g>
		<path class="st4" d="M238.5,271.4L238.5,271.4c-8.9,1.9-25.5,7-26.2,13.6c-0.7-6.7-17.2-11.7-26.2-13.6l0,0
			c-14.8-3.1-24.6-8.9-24.6-15.4c0-1.6,3.8-3,8.4-3s8.4,1.3,8.4,3c0,6.6,15.3,12,34,12c18.8,0,34-5.4,34-12c0-1.6,3.8-3,8.4-3
			s8.4,1.3,8.4,3C263.2,262.5,253.3,268.2,238.5,271.4z M212.4,265.5c9.5,0,17.2-2.7,17.2-6.1c0-3.4-7.7-6.1-17.2-6.1
			s-17.2,2.7-17.2,6.1C195.2,262.7,202.9,265.5,212.4,265.5z"/>
		<path class="st4" d="M178.4,274L178.4,274c2.5,3.6,10.9,10.7,28.6,13c-18.1-1.8-36.8,2.2-44.8,4.6l0,0c-13,4-31.5,5.6-49,3.5
			c-4.4-0.5-6.8-2.2-5.4-3.7c1.4-1.6,6.2-2.4,10.6-1.9c17.8,2,37.1-1.4,42.8-7.7c5.8-6.3-4-13.1-21.8-15.2c-4.4-0.5-6.8-2.2-5.4-3.7
			c1.4-1.6,6.2-2.4,10.6-1.9C162.2,263,174.5,268.1,178.4,274z M154.5,281c2.9-3.2-2-6.6-11-7.7c-9-1-18.7,0.7-21.7,3.9
			c-2.9,3.2,2,6.6,11,7.7C141.9,286,151.6,284.2,154.5,281z"/>
		<path class="st4" d="M164.6,295.6L164.6,295.6c10.5,0.3,32.2-0.4,43.8-5.6c-10.5,5.5-5.5,13-1.5,16.5l0,0
			c6.7,5.6,5.2,12.3-5.7,17.6c-2.7,1.3-8,1.6-11.7,0.7c-3.8-1-4.6-2.8-1.9-4.2c11-5.4,7.6-12.9-7.5-16.8
			c-15.2-3.9-36.5-2.7-47.5,2.7c-2.7,1.3-8,1.6-11.7,0.7c-3.8-1-4.6-2.8-1.9-4.2C129.9,297.6,147.4,295,164.6,295.6z M175.9,305.8
			c-7.7-2-18.4-1.4-24,1.3c-5.6,2.7-3.9,6.5,3.8,8.5s18.5,1.4,24-1.3C185.3,311.6,183.6,307.7,175.9,305.8z"/>
		<path class="st4" d="M218.8,306.4L218.8,306.4c4-3.4,9-11-1.5-16.5c11.6,5.2,33.4,5.9,43.8,5.6l0,0c17.2-0.5,34.7,2.1,45.5,7.3
			c2.7,1.3,1.9,3.2-1.9,4.2s-9,0.7-11.7-0.7c-11-5.4-32.3-6.6-47.5-2.7S227,315,238,320.4c2.7,1.3,1.9,3.2-1.9,4.2s-9,0.7-11.7-0.7
			C213.6,318.8,212.1,312.1,218.8,306.4z M249.8,305.8c-7.7,2-9.4,5.8-3.8,8.5c5.6,2.7,16.3,3.3,24,1.3s9.4-5.8,3.8-8.5
			C268.2,304.4,257.5,303.8,249.8,305.8z"/>
		<path class="st4" d="M263,291.7L263,291.7c-8-2.4-26.7-6.4-44.8-4.6c17.7-2.3,26.1-9.4,28.6-13l0,0c3.9-5.9,16.2-11,33.8-13.1
			c4.4-0.5,9.2,0.3,10.6,1.9s-1,3.2-5.4,3.7c-17.8,2-27.6,8.8-21.8,15.2c5.8,6.3,25,9.8,42.8,7.7c4.4-0.5,9.2,0.3,10.6,1.9
			c1.4,1.6-1,3.2-5.4,3.7C294.5,297.2,276,295.6,263,291.7z M270.7,281c2.9,3.2,12.6,4.9,21.7,3.9c9-1,14-4.5,11.1-7.7
			c-2.9-3.2-12.6-5-21.7-3.9C272.8,274.4,267.8,277.8,270.7,281z"/>
	</g>
	<g>
		<path class="st0" d="M238.5,172.9L238.5,172.9c-8.9,5.5-25.5,19.8-26.2,38.6c-0.7-18.8-17.2-33.1-26.2-38.6l0,0
			c-14.8-8.9-24.6-25.1-24.6-43.5c0-4.6,3.8-8.4,8.4-8.4s8.4,3.8,8.4,8.4c0,18.7,15.3,34,34,34c18.8,0,34-15.3,34-34
			c0-4.6,3.8-8.4,8.4-8.4s8.4,3.8,8.4,8.4C263.2,147.8,253.3,164,238.5,172.9z"/>
		<path class="st1" d="M212.4,156.3c9.5,0,17.2-7.7,17.2-17.2s-7.7-17.2-17.2-17.2s-17.2,7.7-17.2,17.2
			C195.2,148.6,202.9,156.3,212.4,156.3z"/>
		<path class="st0" d="M178.4,180.5L178.4,180.5c2.5,10.2,10.9,30.3,28.6,36.8c-18.1-5.2-36.8,6.2-44.8,13l0,0
			c-13,11.3-31.5,15.7-49,10c-4.4-1.4-6.8-6.2-5.4-10.6c1.4-4.4,6.2-6.8,10.6-5.4c17.8,5.8,37.1-4,42.8-21.8
			c5.8-17.8-4-37-21.8-42.8c-4.4-1.4-6.8-6.2-5.4-10.6c1.4-4.4,6.2-6.8,10.6-5.4C162.2,149.3,174.5,163.7,178.4,180.5z"/>
		<path class="st1" d="M154.5,200.3c2.9-9-2-18.7-11-21.7c-9-2.9-18.7,2-21.7,11c-2.9,9,2,18.7,11,21.7
			C141.9,214.2,151.6,209.3,154.5,200.3z"/>
		<path class="st0" d="M164.6,241.3L164.6,241.3c10.5,0.8,32.2-1,43.8-15.8c-10.5,15.6-5.5,36.9-1.5,46.6l0,0
			c6.7,15.9,5.2,34.8-5.7,49.7c-2.7,3.8-8,4.6-11.7,1.9c-3.8-2.7-4.6-8-1.9-11.7c11-15.2,7.6-36.5-7.5-47.5
			c-15.2-11-36.5-7.6-47.5,7.5c-2.7,3.8-8,4.6-11.7,1.9c-3.8-2.7-4.6-8-1.9-11.7C129.9,247.2,147.4,239.9,164.6,241.3z"/>
		<path class="st1" d="M175.9,270.2c-7.7-5.6-18.4-3.9-24,3.8c-5.6,7.7-3.9,18.5,3.8,24c7.7,5.6,18.5,3.9,24-3.8
			C185.3,286.5,183.6,275.8,175.9,270.2z"/>
		<path class="st0" d="M218.8,272.1L218.8,272.1c4-9.7,9-31-1.5-46.6c11.6,14.8,33.4,16.6,43.8,15.8l0,0
			c17.2-1.5,34.7,5.8,45.5,20.7c2.7,3.8,1.9,9-1.9,11.7c-3.8,2.7-9,1.9-11.7-1.9c-11-15.2-32.3-18.5-47.5-7.5s-18.5,32.3-7.5,47.5
			c2.7,3.8,1.9,9-1.9,11.7c-3.8,2.7-9,1.9-11.7-1.9C213.6,306.9,212.1,288,218.8,272.1z"/>
		<path class="st1" d="M249.8,270.2c-7.7,5.6-9.4,16.3-3.8,24c5.6,7.7,16.3,9.4,24,3.8s9.4-16.4,3.8-24
			C268.2,266.3,257.5,264.6,249.8,270.2z"/>
		<path class="st0" d="M263,230.3L263,230.3c-8-6.8-26.7-18.1-44.8-13c17.7-6.4,26.1-26.6,28.6-36.8l0,0
			c3.9-16.8,16.2-31.2,33.8-36.9c4.4-1.4,9.2,1,10.6,5.4c1.4,4.4-1,9.2-5.4,10.6c-17.8,5.8-27.6,25-21.8,42.8
			c5.8,17.8,25,27.6,42.8,21.8c4.4-1.4,9.2,1,10.6,5.4c1.4,4.4-1,9.2-5.4,10.6C294.5,246,276,241.5,263,230.3z"/>
		<path class="st1" d="M270.7,200.3c2.9,9,12.6,14,21.7,11c9-2.9,14-12.6,11.1-21.7c-2.9-9-12.6-14-21.7-11
			C272.8,181.5,267.8,191.2,270.7,200.3z"/>
	</g>
</g>
<g>
	<path class="st0" d="M254.4,332.3l-2.5-8.9h-0.1c0.1,1.5,0.2,2.7,0.2,3.5v5.4h-3v-12.4h4.5l2.6,8.8h0.1l2.5-8.8h4.5v12.4h-3.1v-5.4
		c0-0.3,0-0.6,0-0.9c0-0.3,0-1.2,0.1-2.5h-0.1l-2.5,8.9H254.4z"/>
	<path class="st0" d="M265.2,330.9c0-0.5,0.2-0.9,0.5-1.2c0.3-0.3,0.8-0.4,1.3-0.4c0.6,0,1,0.1,1.3,0.4c0.3,0.3,0.4,0.7,0.4,1.2
		c0,0.5-0.2,0.9-0.5,1.2c-0.3,0.3-0.7,0.4-1.3,0.4c-0.6,0-1-0.1-1.3-0.4C265.3,331.8,265.2,331.4,265.2,330.9z"/>
	<path class="st0" d="M278.4,332.3l-0.6-2.3h-4l-0.6,2.3h-3.7l4-12.4h4.5l4.1,12.4H278.4z M277.1,327.2l-0.5-2
		c-0.1-0.5-0.3-1-0.5-1.8c-0.2-0.7-0.3-1.2-0.4-1.5c-0.1,0.3-0.2,0.8-0.3,1.4c-0.1,0.7-0.5,2-1,3.9H277.1z"/>
	<path class="st0" d="M286.3,329.8l0.1,0.2c-0.5,2.2-1,3.7-1.5,4.8h-2.4c0.2-0.8,0.3-1.7,0.5-2.6c0.2-1,0.3-1.7,0.3-2.3H286.3z"/>
	<path class="st0" d="M298.8,322.5c-0.8,0-1.4,0.3-1.9,1c-0.4,0.7-0.7,1.6-0.7,2.7c0,2.4,0.9,3.6,2.7,3.6c0.5,0,1.1-0.1,1.6-0.2
		s1-0.3,1.6-0.6v2.8c-1,0.5-2.2,0.7-3.5,0.7c-1.9,0-3.3-0.5-4.3-1.6c-1-1.1-1.5-2.7-1.5-4.7c0-1.3,0.2-2.4,0.7-3.4
		c0.5-1,1.2-1.7,2.1-2.2c0.9-0.5,2-0.8,3.2-0.8c1.3,0,2.6,0.3,3.8,0.9l-1,2.6c-0.5-0.2-0.9-0.4-1.4-0.5
		C299.8,322.5,299.3,322.5,298.8,322.5z"/>
	<path class="st0" d="M307.7,332.3h-3.3v-13.2h3.3V332.3z"/>
	<path class="st0" d="M309.9,320.3c0-0.5,0.1-0.9,0.4-1.1s0.7-0.4,1.3-0.4c0.6,0,1.1,0.1,1.3,0.4c0.3,0.2,0.4,0.6,0.4,1.1
		c0,1-0.6,1.5-1.8,1.5C310.5,321.8,309.9,321.3,309.9,320.3z M313.3,332.3H310v-9.6h3.3V332.3z"/>
	<path class="st0" d="M321.7,332.3V327c0-0.6-0.1-1.1-0.3-1.4c-0.2-0.3-0.5-0.5-0.9-0.5c-0.6,0-1,0.2-1.2,0.7s-0.4,1.2-0.4,2.3v4.2
		h-3.3v-9.6h2.5l0.4,1.2h0.2c0.3-0.5,0.7-0.8,1.2-1c0.5-0.2,1.1-0.3,1.7-0.3c1.1,0,1.9,0.3,2.5,0.9c0.6,0.6,0.9,1.5,0.9,2.6v6.2
		H321.7z"/>
	<path class="st0" d="M327.1,320.3c0-0.5,0.1-0.9,0.4-1.1s0.7-0.4,1.3-0.4c0.6,0,1.1,0.1,1.3,0.4c0.3,0.2,0.4,0.6,0.4,1.1
		c0,1-0.6,1.5-1.8,1.5C327.7,321.8,327.1,321.3,327.1,320.3z M330.5,332.3h-3.3v-9.6h3.3V332.3z"/>
	<path class="st0" d="M337.2,332.5c-1.6,0-2.8-0.4-3.6-1.3c-0.8-0.8-1.2-2.1-1.2-3.7c0-1.6,0.4-2.8,1.3-3.7c0.9-0.9,2.1-1.3,3.7-1.3
		c1.1,0,2.2,0.2,3.1,0.7l-1,2.4c-0.4-0.2-0.8-0.3-1.1-0.4c-0.3-0.1-0.7-0.2-1.1-0.2c-0.5,0-1,0.2-1.2,0.6c-0.3,0.4-0.4,1-0.4,1.8
		c0,1.5,0.6,2.3,1.7,2.3c1,0,1.9-0.3,2.8-0.8v2.6C339.5,332.2,338.4,332.5,337.2,332.5z"/>
	<path class="st0" d="M348.5,332.3l-0.6-1.3h-0.1c-0.4,0.6-0.9,0.9-1.4,1.1c-0.5,0.2-1.1,0.3-1.8,0.3c-0.9,0-1.6-0.3-2.1-0.8
		c-0.5-0.5-0.8-1.3-0.8-2.3c0-1,0.4-1.8,1.1-2.3c0.7-0.5,1.7-0.8,3.1-0.8l1.6-0.1V326c0-0.8-0.4-1.2-1.2-1.2c-0.7,0-1.6,0.2-2.7,0.7
		l-1-2.2c1.1-0.6,2.5-0.9,4.2-0.9c1.2,0,2.2,0.3,2.9,0.9c0.7,0.6,1,1.5,1,2.6v6.3H348.5z M346,330.1c0.4,0,0.7-0.1,1-0.4
		c0.3-0.3,0.4-0.6,0.4-1V328l-0.8,0c-1.1,0-1.6,0.4-1.6,1.2C345.1,329.8,345.4,330.1,346,330.1z"/>
	<path class="st0" d="M356.3,332.3H353v-13.2h3.3V332.3z"/>
	<path class="st0" d="M372.3,323.8c0,1.4-0.4,2.5-1.2,3.2c-0.8,0.8-2,1.1-3.5,1.1h-0.9v4.1h-3.3v-12.4h4.3c1.6,0,2.7,0.3,3.5,1
		C371.9,321.6,372.3,322.6,372.3,323.8z M366.7,325.4h0.6c0.5,0,0.9-0.1,1.2-0.4c0.3-0.3,0.4-0.7,0.4-1.2c0-0.8-0.5-1.3-1.4-1.3
		h-0.9V325.4z"/>
	<path class="st0" d="M381.5,329.3c0,1-0.4,1.8-1.1,2.3c-0.7,0.5-1.7,0.8-3,0.8c-0.7,0-1.3,0-1.9-0.1c-0.5-0.1-1.1-0.2-1.6-0.4v-2.7
		c0.5,0.2,1.1,0.4,1.7,0.6c0.6,0.1,1.2,0.2,1.6,0.2c0.7,0,1.1-0.2,1.1-0.5c0-0.2-0.1-0.3-0.3-0.5c-0.2-0.1-0.8-0.4-1.7-0.8
		c-0.9-0.4-1.5-0.8-1.8-1.2c-0.3-0.5-0.5-1-0.5-1.7c0-0.9,0.3-1.6,1-2.1c0.7-0.5,1.7-0.7,2.9-0.7c0.6,0,1.2,0.1,1.8,0.2
		c0.6,0.1,1.1,0.3,1.7,0.6l-0.9,2.1c-0.4-0.2-0.9-0.4-1.4-0.5c-0.5-0.1-0.9-0.2-1.2-0.2c-0.5,0-0.8,0.1-0.8,0.4
		c0,0.2,0.1,0.3,0.3,0.4c0.2,0.1,0.7,0.4,1.6,0.7c0.7,0.3,1.2,0.5,1.5,0.8c0.3,0.3,0.6,0.6,0.7,0.9
		C381.4,328.4,381.5,328.8,381.5,329.3z"/>
	<path class="st0" d="M382.2,322.7h3.5l1.6,5.5c0.1,0.3,0.1,0.6,0.2,1h0.1c0-0.4,0.1-0.7,0.2-1l1.7-5.5h3.4l-3.8,10.2
		c-0.5,1.3-1.1,2.2-1.8,2.8c-0.7,0.5-1.6,0.8-2.8,0.8c-0.4,0-0.9,0-1.4-0.1v-2.6c0.3,0.1,0.6,0.1,1,0.1c0.3,0,0.6-0.1,0.8-0.2
		c0.2-0.1,0.4-0.3,0.6-0.5s0.3-0.5,0.5-1L382.2,322.7z"/>
	<path class="st0" d="M398.3,332.5c-1.6,0-2.8-0.4-3.6-1.3c-0.8-0.8-1.2-2.1-1.2-3.7c0-1.6,0.4-2.8,1.3-3.7c0.9-0.9,2.1-1.3,3.7-1.3
		c1.1,0,2.2,0.2,3.1,0.7l-1,2.4c-0.4-0.2-0.8-0.3-1.1-0.4c-0.3-0.1-0.7-0.2-1.1-0.2c-0.5,0-1,0.2-1.2,0.6c-0.3,0.4-0.4,1-0.4,1.8
		c0,1.5,0.6,2.3,1.7,2.3c1,0,1.9-0.3,2.8-0.8v2.6C400.5,332.2,399.5,332.5,398.3,332.5z"/>
	<path class="st0" d="M409.3,332.3V327c0-1.3-0.4-1.9-1.1-1.9c-0.5,0-0.9,0.2-1.2,0.7c-0.3,0.5-0.4,1.2-0.4,2.3v4.2h-3.3v-13.2h3.3
		v1.9c0,0.8,0,1.8-0.1,2.9h0.2c0.3-0.5,0.7-0.8,1.1-1.1c0.4-0.2,0.9-0.3,1.5-0.3c1.1,0,1.9,0.3,2.5,0.9c0.6,0.6,0.9,1.5,0.9,2.6v6.2
		H409.3z"/>
	<path class="st0" d="M424.1,327.5c0,1.6-0.4,2.8-1.3,3.7c-0.8,0.9-2,1.3-3.5,1.3c-1.5,0-2.6-0.4-3.5-1.3c-0.9-0.9-1.3-2.1-1.3-3.6
		c0-1.6,0.4-2.8,1.3-3.6c0.8-0.9,2-1.3,3.6-1.3c0.9,0,1.8,0.2,2.5,0.6c0.7,0.4,1.3,1,1.7,1.7C423.9,325.6,424.1,326.5,424.1,327.5z
		 M417.9,327.5c0,0.8,0.1,1.5,0.3,1.9c0.2,0.4,0.6,0.6,1.1,0.6c0.5,0,0.9-0.2,1.1-0.6c0.2-0.4,0.3-1.1,0.3-1.9
		c0-0.8-0.1-1.4-0.3-1.9c-0.2-0.4-0.6-0.6-1.1-0.6c-0.5,0-0.9,0.2-1.1,0.6C418,326,417.9,326.6,417.9,327.5z"/>
	<path class="st0" d="M429.3,332.3H426v-13.2h3.3V332.3z"/>
	<path class="st0" d="M440.7,327.5c0,1.6-0.4,2.8-1.3,3.7c-0.8,0.9-2,1.3-3.5,1.3c-1.5,0-2.6-0.4-3.5-1.3c-0.9-0.9-1.3-2.1-1.3-3.6
		c0-1.6,0.4-2.8,1.3-3.6c0.8-0.9,2-1.3,3.6-1.3c0.9,0,1.8,0.2,2.5,0.6c0.7,0.4,1.3,1,1.7,1.7C440.5,325.6,440.7,326.5,440.7,327.5z
		 M434.5,327.5c0,0.8,0.1,1.5,0.3,1.9c0.2,0.4,0.6,0.6,1.1,0.6c0.5,0,0.9-0.2,1.1-0.6c0.2-0.4,0.3-1.1,0.3-1.9
		c0-0.8-0.1-1.4-0.3-1.9c-0.2-0.4-0.6-0.6-1.1-0.6c-0.5,0-0.9,0.2-1.1,0.6C434.6,326,434.5,326.6,434.5,327.5z"/>
	<path class="st0" d="M451.7,322.7v1.6l-1.3,0.5c0.2,0.3,0.3,0.7,0.3,1.1c0,1-0.4,1.8-1.1,2.4c-0.7,0.6-1.8,0.9-3.2,0.9
		c-0.4,0-0.6,0-0.8-0.1c-0.1,0.1-0.1,0.3-0.1,0.4c0,0.2,0.1,0.3,0.4,0.4c0.3,0.1,0.6,0.1,1,0.1h1.6c2.2,0,3.2,0.9,3.2,2.7
		c0,1.2-0.5,2.1-1.5,2.7c-1,0.6-2.4,1-4.2,1c-1.4,0-2.4-0.2-3.1-0.7c-0.7-0.5-1.1-1.1-1.1-2c0-1.1,0.7-1.9,2.1-2.2
		c-0.3-0.1-0.5-0.3-0.8-0.6c-0.2-0.3-0.3-0.6-0.3-0.8c0-0.3,0.1-0.6,0.2-0.8c0.2-0.2,0.5-0.5,1-0.8c-0.5-0.2-0.9-0.6-1.2-1
		c-0.3-0.5-0.4-1-0.4-1.7c0-1,0.4-1.9,1.1-2.4c0.7-0.6,1.7-0.9,3.1-0.9c0.2,0,0.5,0,0.9,0.1s0.7,0.1,0.9,0.1H451.7z M444.5,333.5
		c0,0.3,0.1,0.5,0.4,0.7c0.3,0.2,0.7,0.2,1.2,0.2c0.8,0,1.4-0.1,1.9-0.3c0.5-0.2,0.7-0.5,0.7-0.8c0-0.3-0.1-0.4-0.4-0.5
		c-0.3-0.1-0.7-0.2-1.3-0.2h-1.3c-0.4,0-0.7,0.1-0.9,0.3C444.6,333,444.5,333.2,444.5,333.5z M445.5,325.8c0,1,0.3,1.5,1,1.5
		c0.3,0,0.6-0.1,0.7-0.4c0.2-0.2,0.3-0.6,0.3-1.1c0-1-0.3-1.5-1-1.5C445.8,324.4,445.5,324.8,445.5,325.8z"/>
	<path class="st0" d="M452,322.7h3.5l1.6,5.5c0.1,0.3,0.1,0.6,0.2,1h0.1c0-0.4,0.1-0.7,0.2-1l1.7-5.5h3.4l-3.8,10.2
		c-0.5,1.3-1.1,2.2-1.8,2.8c-0.7,0.5-1.6,0.8-2.8,0.8c-0.4,0-0.9,0-1.4-0.1v-2.6c0.3,0.1,0.6,0.1,1,0.1c0.3,0,0.6-0.1,0.8-0.2
		c0.2-0.1,0.4-0.3,0.6-0.5c0.2-0.2,0.3-0.5,0.5-1L452,322.7z"/>
	<path class="st0" d="M466.1,329.8l0.1,0.2c-0.5,2.2-1,3.7-1.5,4.8h-2.4c0.2-0.8,0.3-1.7,0.5-2.6c0.2-1,0.3-1.7,0.3-2.3H466.1z"/>
	<path class="st0" d="M478.5,332.3l-2.5-8.9h-0.1c0.1,1.5,0.2,2.7,0.2,3.5v5.4h-3v-12.4h4.5l2.6,8.8h0.1l2.5-8.8h4.5v12.4h-3.1v-5.4
		c0-0.3,0-0.6,0-0.9c0-0.3,0-1.2,0.1-2.5h-0.1l-2.5,8.9H478.5z"/>
	<path class="st0" d="M493.2,332.3h-3.3v-12.4h7.3v2.7h-4v2.4h3.7v2.7h-3.7V332.3z"/>
	<path class="st0" d="M504.7,332.3h-3.3v-9.6h-3v-2.7h9.4v2.7h-3V332.3z"/>
	<path class="st0" d="M509.2,320.3c0-0.5,0.1-0.9,0.4-1.1c0.3-0.2,0.7-0.4,1.3-0.4c0.6,0,1.1,0.1,1.3,0.4c0.3,0.2,0.4,0.6,0.4,1.1
		c0,1-0.6,1.5-1.8,1.5C509.8,321.8,509.2,321.3,509.2,320.3z M512.6,332.3h-3.3v-9.6h3.3V332.3z"/>
</g>
</svg>
