<?xml version="1.0" encoding="utf-8"?>
<!-- Generator: Adobe Illustrator 19.1.0, SVG Export Plug-In . SVG Version: 6.00 Build 0)  -->
<svg version="1.1" id="Layer_1" xmlns="http://www.w3.org/2000/svg" xmlns:xlink="http://www.w3.org/1999/xlink" x="0px" y="0px"
	 viewBox="0 0 40 40" style="enable-background:new 0 0 40 40;" xml:space="preserve">
<style type="text/css">
	.st0{fill:#3FC4BD;}
</style>
<g>
	<g>
		<path class="st0" d="M24.3,11.9L24.3,11.9c2.5-1.4,4.1-4.1,4.1-7c0-0.8-0.6-1.4-1.4-1.4s-1.4,0.6-1.4,1.4c0,3-2.6,5.5-5.7,5.5
			s-5.7-2.5-5.7-5.5c0-0.8-0.6-1.4-1.4-1.4c-0.8,0-1.4,0.6-1.4,1.4c0,3,1.7,5.6,4.1,7c1.5,0.9,4.3,3.2,4.4,6.2
			C20.1,15.1,22.8,12.8,24.3,11.9z M20,9.2c1.6,0,2.9-1.2,2.9-2.8c0-1.5-1.3-2.8-2.9-2.8s-2.9,1.2-2.9,2.8S18.4,9.2,20,9.2z
			 M11.6,21.2c1.3-1.1,4.5-2.9,7.5-2.1c-3-1-4.4-4.3-4.8-5.9l0,0c-0.7-2.7-2.7-5-5.7-6C7.9,6.9,7.1,7.3,6.9,8C6.6,8.7,7,9.5,7.8,9.7
			c3,0.9,4.6,4,3.7,6.9c-1,2.9-4.2,4.5-7.2,3.5c-0.7-0.2-1.5,0.2-1.8,0.9c-0.2,0.7,0.2,1.5,0.9,1.7C6.3,23.7,9.4,23,11.6,21.2z
			 M6.7,18.1c1.5,0.5,3.1-0.3,3.6-1.8s-0.3-3-1.8-3.5s-3.1,0.3-3.6,1.8C4.3,16,5.1,17.6,6.7,18.1z M19.3,20.4
			c-1.9,2.4-5.6,2.7-7.3,2.6c-2.9-0.2-5.8,0.9-7.6,3.4c-0.5,0.6-0.3,1.5,0.3,1.9s1.5,0.3,2-0.3c1.8-2.5,5.4-3,7.9-1.2
			s3.1,5.2,1.3,7.7c-0.5,0.6-0.3,1.5,0.3,1.9c0.6,0.4,1.5,0.3,2-0.3c1.8-2.4,2.1-5.5,0.9-8C18.4,26.3,17.5,22.9,19.3,20.4z
			 M13.9,27.6c-1.3-0.9-3.1-0.6-4,0.6s-0.7,3,0.6,3.9s3.1,0.6,4-0.6C15.4,30.2,15.2,28.5,13.9,27.6z M28.1,22.9
			c-1.8,0.1-5.4-0.2-7.3-2.6c1.8,2.5,0.9,6,0.3,7.5c-1.1,2.6-0.9,5.6,0.9,8c0.5,0.6,1.3,0.7,2,0.3c0.6-0.4,0.8-1.3,0.3-1.9
			c-1.8-2.5-1.3-5.9,1.3-7.7c2.5-1.8,6.1-1.2,7.9,1.2c0.5,0.6,1.3,0.7,2,0.3c0.6-0.4,0.8-1.3,0.3-1.9C33.9,23.9,31,22.7,28.1,22.9z
			 M26.2,27.6c-1.3,0.9-1.6,2.6-0.6,3.9c0.9,1.2,2.7,1.5,4,0.6c1.3-0.9,1.6-2.6,0.6-3.9C29.3,27,27.5,26.7,26.2,27.6z M37.6,21.1
			c-0.2-0.7-1-1.1-1.8-0.9c-3,0.9-6.2-0.6-7.2-3.5s0.7-6,3.7-6.9c0.7-0.2,1.1-1,0.9-1.7c-0.2-0.7-1-1.1-1.8-0.9
			c-2.9,0.9-5,3.3-5.7,6c-0.4,1.7-1.8,4.9-4.8,5.9c3-0.8,6.2,1,7.5,2.1c2.2,1.8,5.3,2.5,8.2,1.6C37.4,22.5,37.8,21.8,37.6,21.1z
			 M31.6,12.8c-1.5,0.5-2.3,2-1.8,3.5s2.1,2.3,3.6,1.8s2.3-2,1.8-3.5C34.7,13.1,33.1,12.3,31.6,12.8z"/>
	</g>
</g>
</svg>
